<?xml version="1.0" encoding="UTF-8"?>
<svg xmlns="http://www.w3.org/2000/svg" viewBox="0 0 192 198.4">
  <title>icon-phone</title>
  <path d="M4.3,157,34,126.2c5.9-6,15.6-5.9,21.8.5l14.9,15.4,2.9-1.7c9.5-5.4,22.4-12.8,36-26.9s20.8-27.5,26-37.3c.6-1,1.1-2,1.6-3l-10-10.3-4.9-5.1c-6.2-6.4-6.3-16.5-.4-22.6L151.5,4.5a15,15,0,0,1,21.8.4l8.4,8.7-.3.2a49.5,49.5,0,0,1,6.9,12.6,56.7,56.7,0,0,1,3.1,12.8c3.9,33.6-10.9,64.3-51.2,106C84.6,202.9,39.7,198.5,37.8,198.3a49.6,49.6,0,0,1-12.3-3.2A45.4,45.4,0,0,1,13.4,188l-.2.2-8.5-8.6c-6.1-6.4-6.3-16.5-.4-22.6" style="fill:#fff"></path>
</svg>
